<?xml version="1.0" encoding="utf-8"?>
<!-- Generator: Adobe Illustrator 23.0.0, SVG Export Plug-In . SVG Version: 6.00 Build 0)  -->
<svg version="1.1" id="Layer_1" xmlns="http://www.w3.org/2000/svg" xmlns:xlink="http://www.w3.org/1999/xlink" x="0px" y="0px"
	 viewBox="0 0 2557.2 3084.9" style="enable-background:new 0 0 2557.2 3084.9;" xml:space="preserve">
<style type="text/css">
	.st0{fill:#0C2D48;}
	.st1{clip-path:url(#SVGID_2_);}
	.st2{fill:url(#SVGID_3_);}
	.st3{fill:#DAA16A;}
	.st4{clip-path:url(#SVGID_5_);}
	.st5{fill:url(#SVGID_6_);}
	.st6{clip-path:url(#SVGID_8_);}
	.st7{fill:url(#SVGID_9_);}
	.st8{clip-path:url(#SVGID_11_);}
	.st9{fill:url(#SVGID_12_);}
	.st10{clip-path:url(#SVGID_14_);}
	.st11{fill:url(#SVGID_15_);}
	.st12{clip-path:url(#SVGID_17_);}
	.st13{fill:url(#SVGID_18_);}
	.st14{clip-path:url(#SVGID_20_);}
	.st15{fill:url(#SVGID_21_);}
	.st16{clip-path:url(#SVGID_23_);}
	.st17{fill:url(#SVGID_24_);}
	.st18{clip-path:url(#SVGID_26_);}
	.st19{fill:url(#SVGID_27_);}
	.st20{clip-path:url(#SVGID_29_);}
	.st21{fill:url(#SVGID_30_);}
	.st22{clip-path:url(#SVGID_32_);}
	.st23{fill:url(#SVGID_33_);}
</style>
<title>favicon</title>
<g>
	<path class="st0" d="M95.6,881.3c0,0,1038.4-598.9,2373-5.5c204.5,1615.4-1169.4,2164-1169.4,2164S-141,2425.2,95.6,881.3"/>
	<g>
		<g>
			<defs>
				<path id="SVGID_1_" d="M636.6,2508.9C213.5,2063.6,44.1,1525.2,133.3,908c63.8-33.2,302-148.4,655.6-211.2
					c379.6-67.3,970.8-85,1641.8,207.4c76.3,645.9-91.1,1193.6-497.8,1628.6c-270.1,289.1-563.1,430.5-633.3,461.7
					C1227.7,2960.6,918.6,2805.7,636.6,2508.9 M774.7,615.3c-428.6,76-688.7,223.8-699,230.2l-17.1,10.3l-2.9,19.6
					c-55.1,359-24.8,699,90.2,1009.1c91.8,248.2,237.9,478.5,433.7,683.6c332,349,688.4,504.2,703.8,510l15.8,6.8l15.8-6.1
					c14.5-5.8,355.8-144.6,676.2-486.2c185.5-196.4,328.4-428.9,419.9-682.9c113-314.3,146.2-663.6,98.5-1038.4l-2.9-23.2l-21.3-9.3
					c-455-202.5-875.1-265.6-1222.2-265.6C1099.6,572.8,936,587,774.7,615.3"/>
			</defs>
			<clipPath id="SVGID_2_">
				<use xlink:href="#SVGID_1_"  style="overflow:visible;"/>
			</clipPath>
			<g class="st1">
				
					<linearGradient id="SVGID_3_" gradientUnits="userSpaceOnUse" x1="2106.4697" y1="2010.7539" x2="2115.8257" y2="2010.7539" gradientTransform="matrix(269.01 0 0 -269.01 -566632.8125 542741.4375)">
					<stop  offset="0" style="stop-color:#E2B885"/>
					<stop  offset="1" style="stop-color:#9A6940"/>
				</linearGradient>
				<rect y="572.8" class="st2" width="2557.2" height="2511.4"/>
			</g>
		</g>
	</g>
	<polygon class="st3" points="1306.3,0 1358.1,159.7 1526.2,159.7 1390.3,258.5 1442.1,418.3 1306.3,319.4 1170.4,418.3 
		1222.2,258.5 1086.4,159.7 1254.4,159.7 	"/>
	<polygon class="st3" points="1859.4,156.5 1894.2,263.1 2006.3,263.1 1915.5,329.1 1950.2,435.6 1859.4,369.6 1768.6,435.6 
		1803.4,329.1 1712.6,263.1 1824.7,263.1 	"/>
	<polygon class="st3" points="2394.6,310.4 2429.3,417 2541.4,417 2450.9,483 2485.4,589.5 2394.6,523.9 2304.1,589.5 2338.5,483 
		2247.7,417 2360.1,417 	"/>
	<polygon class="st3" points="164.2,310.4 199,417 311,417 220.2,483 255,589.5 164.2,523.9 73.4,589.5 108.2,483 17.4,417 
		129.4,417 	"/>
	<polygon class="st3" points="699.3,156.5 734.1,263.1 846.2,263.1 755.4,329.1 790.1,435.6 699.3,369.6 608.9,435.6 643.3,329.1 
		552.5,263.1 664.9,263.1 	"/>
	<g>
		<g>
			<defs>
				<path id="SVGID_4_" d="M971.1,1064.8l63.8,181l14.2-5.8c0,0,1-5.8-51.8-141.7c133,64.7,202.2-9.7,284.3-94.3
					c156.5,199.3,287.9,94.3,287.9,94.3l-53.4,148.1l20.6,8.7c0,0,7.7-23.2,55.7-186.7c-203.2,85.6-281.1-87.6-310.1-127.2
					c-125.9,247.6-311,123.3-311,123.3"/>
			</defs>
			<clipPath id="SVGID_5_">
				<use xlink:href="#SVGID_4_"  style="overflow:visible;"/>
			</clipPath>
			<g class="st4">
				
					<linearGradient id="SVGID_6_" gradientUnits="userSpaceOnUse" x1="2084.4575" y1="2018.5175" x2="2093.814" y2="2018.5175" gradientTransform="matrix(66.76 0 0 -66.76 -138157.0625 135854.6563)">
					<stop  offset="0" style="stop-color:#9A6940"/>
					<stop  offset="1" style="stop-color:#E2B885"/>
				</linearGradient>
				<rect x="971.4" y="941.5" class="st5" width="620.8" height="313.9"/>
			</g>
		</g>
	</g>
	<g>
		<g>
			<defs>
				<path id="SVGID_7_" d="M989.8,1034.8c0,0-14.5-9.7-12.6,2.9c160.7,106.9,251.1-38.3,304.6-150c126.5,301.4,305.6,151,305.6,151
					s-5.8-1.9-14.5-3.9c-189.6,52.8-243.4-119.5-291.4-199.3C1170.7,1113.7,989.8,1034.8,989.8,1034.8"/>
			</defs>
			<clipPath id="SVGID_8_">
				<use xlink:href="#SVGID_7_"  style="overflow:visible;"/>
			</clipPath>
			<g class="st6">
				
					<linearGradient id="SVGID_9_" gradientUnits="userSpaceOnUse" x1="2083.9612" y1="2019.7281" x2="2093.2146" y2="2019.7281" gradientTransform="matrix(65.64 0 0 -65.64 -135784.6094 133587.0938)">
					<stop  offset="0" style="stop-color:#9A6940"/>
					<stop  offset="1" style="stop-color:#E2B885"/>
				</linearGradient>
				<rect x="975.3" y="835.5" class="st7" width="612.4" height="353.2"/>
			</g>
		</g>
	</g>
	<g>
		<g>
			<defs>
				<path id="SVGID_10_" d="M942.1,1013.3c0,16.1,12.9,29.3,29,29.3s29.3-12.9,29.3-29c0-16.1-12.9-29.3-29-29.3c-0.3,0-0.3,0-0.6,0
					c-16.1,0-29.3,13.2-29.3,29.3"/>
			</defs>
			<clipPath id="SVGID_11_">
				<use xlink:href="#SVGID_10_"  style="overflow:visible;"/>
			</clipPath>
			<g class="st8">
				
					<linearGradient id="SVGID_12_" gradientUnits="userSpaceOnUse" x1="1754.0444" y1="2099.6934" x2="1763.4006" y2="2099.6934" gradientTransform="matrix(6.28 0 0 -6.28 -10063.4902 14199.1836)">
					<stop  offset="0" style="stop-color:#9A6940"/>
					<stop  offset="1" style="stop-color:#E2B885"/>
				</linearGradient>
				<rect x="942.1" y="984" class="st9" width="58.3" height="58.3"/>
			</g>
		</g>
	</g>
	<g>
		<g>
			<defs>
				<path id="SVGID_13_" d="M1558.4,1013.3c0,16.1,12.9,29.3,29,29.3s29.3-12.9,29.3-29c0-16.1-12.9-29-28.7-29.3
					c-16.1,0-29.3,13.2-29.3,29.3"/>
			</defs>
			<clipPath id="SVGID_14_">
				<use xlink:href="#SVGID_13_"  style="overflow:visible;"/>
			</clipPath>
			<g class="st10">
				
					<linearGradient id="SVGID_15_" gradientUnits="userSpaceOnUse" x1="1841.6605" y1="2099.6934" x2="1850.9141" y2="2099.6934" gradientTransform="matrix(6.28 0 0 -6.28 -9997.251 14199.1836)">
					<stop  offset="0" style="stop-color:#9A6940"/>
					<stop  offset="1" style="stop-color:#E2B885"/>
				</linearGradient>
				<rect x="1558.4" y="984" class="st11" width="58.3" height="58.3"/>
			</g>
		</g>
	</g>
	<g>
		<g>
			<defs>
				<path id="SVGID_16_" d="M1252.8,809.5c0,16.1,13.2,29.3,29.3,29.3s29.3-13.2,29.3-29.3s-13.2-29.3-29.3-29.3l0,0
					C1266,780.2,1252.8,793.4,1252.8,809.5"/>
			</defs>
			<clipPath id="SVGID_17_">
				<use xlink:href="#SVGID_16_"  style="overflow:visible;"/>
			</clipPath>
			<g class="st12">
				
					<linearGradient id="SVGID_18_" gradientUnits="userSpaceOnUse" x1="1798.1931" y1="2128.6155" x2="1807.5493" y2="2128.6155" gradientTransform="matrix(6.28 0 0 -6.28 -10030.0703 14177.3242)">
					<stop  offset="0" style="stop-color:#9A6940"/>
					<stop  offset="1" style="stop-color:#E2B885"/>
				</linearGradient>
				<rect x="1252.8" y="780.5" class="st13" width="58.3" height="58.3"/>
			</g>
		</g>
	</g>
	<g>
		<g>
			<defs>
				<path id="SVGID_19_" d="M1110.2,1162.7c0,12.9,10.3,23.2,23.2,23.2c12.9,0,23.2-10.3,23.2-23.2c0-12.9-10.3-23.2-23.2-23.2
					C1120.5,1139.5,1110.2,1150.1,1110.2,1162.7L1110.2,1162.7"/>
			</defs>
			<clipPath id="SVGID_20_">
				<use xlink:href="#SVGID_19_"  style="overflow:visible;"/>
			</clipPath>
			<g class="st14">
				
					<linearGradient id="SVGID_21_" gradientUnits="userSpaceOnUse" x1="1692.1364" y1="2095.2095" x2="1701.3895" y2="2095.2095" gradientTransform="matrix(4.99 0 0 -4.99 -7311.3364 11617.7646)">
					<stop  offset="0" style="stop-color:#9A6940"/>
					<stop  offset="1" style="stop-color:#E2B885"/>
				</linearGradient>
				<rect x="1110.2" y="1139.5" class="st15" width="46.4" height="46.4"/>
			</g>
		</g>
	</g>
	<g>
		<g>
			<defs>
				<path id="SVGID_22_" d="M1408.7,1162.7c0,12.9,10.3,23.2,23.2,23.2s23.2-10.3,23.2-23.2c0-12.9-10.3-23.2-23.2-23.2
					S1408.7,1150.1,1408.7,1162.7L1408.7,1162.7"/>
			</defs>
			<clipPath id="SVGID_23_">
				<use xlink:href="#SVGID_22_"  style="overflow:visible;"/>
			</clipPath>
			<g class="st16">
				
					<linearGradient id="SVGID_24_" gradientUnits="userSpaceOnUse" x1="1745.4492" y1="2095.2095" x2="1754.8049" y2="2095.2095" gradientTransform="matrix(4.99 0 0 -4.99 -7279.2461 11617.7646)">
					<stop  offset="0" style="stop-color:#9A6940"/>
					<stop  offset="1" style="stop-color:#E2B885"/>
				</linearGradient>
				<rect x="1408.7" y="1139.5" class="st17" width="46.4" height="46.4"/>
			</g>
		</g>
	</g>
	<g>
		<g>
			<defs>
				<path id="SVGID_25_" d="M1250.6,1170.4c0,17.7,14.2,31.9,31.9,31.9c17.7,0,31.9-14.2,31.9-31.9c0-17.7-14.2-31.9-31.9-31.9
					C1265.1,1138.5,1250.6,1153,1250.6,1170.4L1250.6,1170.4"/>
			</defs>
			<clipPath id="SVGID_26_">
				<use xlink:href="#SVGID_25_"  style="overflow:visible;"/>
			</clipPath>
			<g class="st18">
				
					<linearGradient id="SVGID_27_" gradientUnits="userSpaceOnUse" x1="1820.4845" y1="2072.761" x2="1829.7377" y2="2072.761" gradientTransform="matrix(6.85 0 0 -6.85 -11241.6514 15368.8086)">
					<stop  offset="0" style="stop-color:#9A6940"/>
					<stop  offset="1" style="stop-color:#E2B885"/>
				</linearGradient>
				<rect x="1250.6" y="1138.5" class="st19" width="63.8" height="63.8"/>
			</g>
		</g>
	</g>
	<g>
		<g>
			<defs>
				<polygon id="SVGID_28_" points="1223.2,1176.2 1282.1,1093.1 1339.1,1176.2 1282.1,1047.7 				"/>
			</defs>
			<clipPath id="SVGID_29_">
				<use xlink:href="#SVGID_28_"  style="overflow:visible;"/>
			</clipPath>
			<g class="st20">
				
					<linearGradient id="SVGID_30_" gradientUnits="userSpaceOnUse" x1="1952.981" y1="2049.1787" x2="1962.2336" y2="2049.1787" gradientTransform="matrix(12.46 0 0 -12.46 -23125.6406 26644.7246)">
					<stop  offset="0" style="stop-color:#9A6940"/>
					<stop  offset="1" style="stop-color:#E2B885"/>
				</linearGradient>
				<rect x="1223.2" y="1047.7" class="st21" width="115.9" height="128.5"/>
			</g>
		</g>
	</g>
	<g>
		<g>
			<defs>
				<path id="SVGID_31_" d="M1345.2,2290.6c-18,20.6-59.9,19.6-59.9,19.6h-2.9c0,0-41.9,1.3-59.9-19.6s-36.1-36.1-58.3-6.4
					c44.1,10.3,68.3,24.5,87.9,72.1c-13.8-13.5-23.2-27.4-46.4-29.6c10.9,20.6,28,66.6,77,65.4h1.9c48.9,1.3,66.3-45.1,77-65.4
					c-23.2,2.3-32.5,16.1-46.4,29.6c19.6-47,43.8-61.8,87.9-72.1c-5.2-9.3-14.5-15.5-25.1-16.4
					C1366.8,2267.7,1356.2,2278,1345.2,2290.6 M997.2,1820.2c40.2,27,99.2-26.7,56-47.3c-8.7,28.3-48,28.3-41.9,7.1
					c7.4-5.8,8.7-16.4,2.9-23.8c-1.3-1.6-2.6-2.9-4.2-3.9c-1.6-1.3-3.9-1.9-6.1-1.9C985.6,1750.3,961.1,1796,997.2,1820.2
					 M1557.7,1751.9c-8,5.2-10.3,15.5-5.2,23.5c1,1.6,2.3,3.2,3.9,4.2c6.4,21.3-33.2,21.3-41.9-7.1c-43.1,20.6,15.8,74.4,56,47.3
					c36.1-24.1,11.3-69.9-6.8-69.9C1561.6,1750.3,1559.7,1750.9,1557.7,1751.9 M1423.5,2365.9c0,0,91.1-32.5,120.7-63.1
					c29.3-30.9,56.3-114-65.4-189.6c107.5,20.6,131.4,158.1,131.4,158.1s12.6,222.2-174.2,262.1c-32.2,7.7-66.3,5.5-97.2-6.4
					c-17.7-7.7-36.7-11.3-55.7-10.9l0,0c-19.3-0.3-38.3,3.2-55.7,10.9c-30.9,12.2-64.7,14.5-97.2,6.4
					C943.4,2493.4,956,2271.2,956,2271.2s23.8-137.8,131.4-158.1c-121.7,75.3-94.7,158.7-65.4,189.6
					c29.3,30.9,120.7,63.1,120.7,63.1s-91.1,15.8-145.5-36.1c1.3,16.1,4.2,32.2,8.7,48c63.1,16.1,75,31.9,145.5,34.8
					c-41.2,16.7-130.1,4.2-130.1,4.2s40.2,40.6,154.2,25.4c-8,15.1-83.1,23.2-123.3,18c16.1,20.6,34.5,48.6,152,8.7
					c-1.3,10.9-75,39.9-75,39.9s47.7,15.1,84.7,0c37-15.1,20.6-20.6,39.6-24.8c19-4.2,5.8-79.9,5.8-79.9s-46.4-10.9-60.9-42.2
					c-14.5-31.2-133.6-58.3-68.3-164.5c-4.2,42.5-7.1,62.8,23.8,80.2c11.6-18,19.6-30.9,53.8-23.2c34.1,7.7,20,29,75,30.9l0,0
					c55.4-1.6,41.2-22.5,75-30.9c34.1-8.4,42.2,5.2,53.8,23.2c30.9-17.4,28.3-37.7,23.8-80.2c65.4,106.3-53.8,133.3-68.3,164.5
					c-14.5,31.2-60.9,42.2-60.9,42.2s-13.2,75.3,5.8,79.9c18.7,4.2,2.6,9.3,39.6,24.8c37,15.5,84.7,0,84.7,0s-73.4-29-75-39.9
					c117.5,39.9,135.9,11.6,151.7-8.7c-41.2,5.2-115.6-2.9-123.3-18c114.6,15.1,154.9-25.4,154.9-25.4s-89.5,12.2-130.1-4.2
					c70.5-2.9,82.1-18.4,145.5-34.8c4.5-15.8,7.4-31.6,8.7-48c-33.8,32.5-81.8,38.3-113,38.3
					C1444.7,2368.5,1433.8,2367.5,1423.5,2365.9 M830.7,1904.5c3.9-40.2,32.8-129.8,32.8-129.8s-26.4,131.7,18.4,145.9
					s108.2-12.6,165.8,39.9c-95-16.7-121.4-15.5-184.2,5.2c-6.4,2.9-13.2,4.5-20,5.2C820.1,1970.5,827.5,1937.7,830.7,1904.5
					 M971.1,1872.6c-46-16.4-66.6-97.9-66.6-97.9c15.5,33.2,41.2,60.5,73.7,77.6c56,30.9,95.9,39.6,107.2,89.2
					C1053.2,1904.5,1017.1,1889.1,971.1,1872.6 M1590.3,1852.4c32.5-17.1,58.3-44.4,73.7-77.6c0,0-20.6,81.5-67,97.9
					c-46.4,16.4-82.1,31.9-114.3,69.2C1494.3,1892,1534.2,1882.9,1590.3,1852.4 M1685.6,1920.3c45.1-14.2,18.4-145.9,18.4-145.9
					s29.3,89.2,33.2,129.8c3.9,40.2,14.2,80.5-33.2,61.2c-62.5-20.6-89.2-21.9-184.2-5.2C1577.7,1907.7,1640.8,1934.5,1685.6,1920.3
					 M965.9,1783.4c-0.6-15.8-21.3-17.7-40.2-18.4c0,0,51.5-38.3,76.3-35.4c24.8,2.9,104,22.9,125.9,94
					c18.7,62.1,20.6,96.3,18,105.6c-2.6,9.3-49.3,132-49.3,132l25.4-179.7c0,0-6.4-26.7-14.8-35.4c-15.1,2.9-30.3,4.5-45.4,4.2
					C1020,1850.7,966.6,1839.1,965.9,1783.4 M1421.5,1929.9c-2.9-9.3,0-36.7,18.4-105.6c21.9-71.5,101.1-91.4,125.9-94
					c24.8-2.9,76.3,35.4,76.3,35.4c-19,0.6-39.6,2.9-40.2,18.4c-0.6,82.7-118.2,67.9-141.7,62.8c-8.4,8.7-14.8,35.4-14.8,35.4
					l25.4,179.7C1470.8,2062,1424.4,1939.3,1421.5,1929.9 M917.6,1674c10.3-43.1,69.9-98.5,114.6-127.2c0,0-51.5,58-52.5,69.5
					c-1,11.6-11.6,19.6,21.6,42.5c33.5,22.5,73.7,56,81.5,45.1c7.7-10.9,10.3-48.6,10.3-48.6s17.1,108.5,42.2,139.7
					C1094.1,1743.5,1080.9,1685.6,917.6,1674 M1566.8,1658.8c33.5-22.5,22.9-30.9,21.9-42.5c-1.3-11.6-52.5-69.5-52.5-69.5
					c44.8,28.7,104.3,84.4,114.6,127.2c-162.9,11.6-176.1,69.9-217.7,121.1c25.1-31.2,42.2-139.7,42.2-139.7s2.9,37.7,10.3,48.6
					c1,1.6,2.9,2.3,4.8,2.3C1503.6,1705.8,1537.8,1678.2,1566.8,1658.8 M753.8,2070c-11.9-96-19-192.2-21.3-289.1
					c1-54.1,23.5-110.1,163.6-255c0,0-54.4,105.9-48.3,136.5c6.1,30.6,48.3,55.1,48.3,55.1s-76.6-22.9-98.5,7.7
					c-21.9,30.6-25.4,108.5-20.6,213.5c5.8,42.5,28,57,88.9,84c36.1,16.1,73.4,28.7,111.7,37.3c0,0-129.8-1.6-162.6-24.5
					c-14.5,14.5-15.5,85.6,74.7,154.2c-33.2-9.3-127.2-57.6-136.5-119.5 M1720.3,1662.4c5.8-30.9-48.3-136.5-48.3-136.5
					c140.1,144.9,162.6,200.9,163.6,255c1,54.1-11.9,227-21.3,289.1c-9.3,61.8-103.4,109.8-136.5,119.1
					c89.8-68.6,88.9-139.7,74.7-154.2c-33.2,22.9-162.6,24.5-162.6,24.5c38.3-8.7,76-20.9,112-37c60.9-27,83.1-41.2,88.9-84
					c5.2-105,1.6-182.9-20.6-213.5c-22.2-30.6-98.5-7.7-98.5-7.7s42.5-24.5,48.3-55.1 M706.1,2233.6c-8.4-4.8-11.6-15.8-8.4-41.2
					c3.5-25.4-28-71.2-42.2-85.6c-19.6-17.4-27.4-44.8-20-69.9c8.4-37.3-8-172.3-22.2-238.3s48-177.4,69.5-221.8
					s183.9-138.5,183.9-138.5s-37.3,30.3-143.9,161.3c-119.5,185.1-23.5,517.7,25.8,604.7s101.7,66,101.7,66l48.6,76.3
					c-54.7-47.7-96-45.7-124-5.8c-9.7-75.7-60.5-102.7-68.9-107.5 M1810.8,2204.6c49.3-86.6,144.9-419.2,25.8-604.7
					c-106.3-131.4-143.9-161.3-143.9-161.3s162.9,94,183.9,138.5s83.1,156.2,68.9,221.8c-13.8,66-30.9,200.9-22.2,238.3
					c7.4,25.1-0.3,52.5-20,69.9c-13.8,14.5-45.4,60.2-42.2,85.6c3.5,25.4,0,36.1-8.4,41.2c-8.4,5.2-59.6,31.9-69.2,107.5
					c-28-39.9-69.5-41.9-124.3,5.8l48.9-76.3c4.8,1.6,9.7,2.3,14.5,2.3c19,0,54.1-9.7,87.3-68.3 M1572.9,1345.9
					c-79.2-23.5-161-37.7-243.4-42.2l1.9,57c0,0,181.9-2.3,310.4,88.9c-227.3-47.7-316.5-46.4-316.5-46.4v53.1
					c55.7,4.8,110.1,20.6,160,46c-95.6-12.6-210.3-32.2-405.7,0c60.2-29.3,116.6-47.7,168.4-48.9l-1.9-53.1
					c0,0-220.6,9.7-320.4,53.1c47.7-48.9,162.3-82.1,318.8-99.5l-4.2-53.1c-87.3,1.6-173.5,16.7-256,44.8c0,0,278.8-189,588.9,0
					 M1793.4,1285c-45.7,19.6-87.3,27-105.3,19.3c-97.6-41.2-173.9-67.3-239.2-78.2c-54.7-7.4-110.1-6.1-164.5,4.2
					c-56.7-14.8-116.2-16.1-173.9-4.2c-65,11.6-141.3,37.3-239.2,78.2c-18,7.4-59.2,0-105.3-19.3c-50.2-20.9-95.3-52.5-132.3-92.4
					c-56.3,110.8-54.1,200.3-37.7,262.1c8,34.8,23.8,67.3,45.4,95.3c0,0-143.9,149.1-77,531.9l63.1-117.8c0,0-84.4,201.2,94.7,414.1
					l-12.6-126.9c0,0,28.7,134.3,203.8,284c-6.1-95.3-10.3-108.2-10.3-108.2s97.6,82.1,112.4,194.5c25.4-36.1,9-54.1,9-54.1
					s49.3,34.5,32.8,92.4c19.6-13.2,32.2-34.5,34.5-58c21.9,34.8,49.9,65,82.7,89.5c-3.9-17.7-8.7-35.4-14.2-52.8
					c2.6,3.9,40.2,40.2,59.9,47.7l24.8-39.6l46,68.6l41.9-67.6c8.7,14.8,20.3,28,33.8,38.6l30.9-48.3c0,0,5.2,5.5-5.2,53.4
					c59.2-45.7,74.1-89.8,74.1-89.8c2.3,23.5,15.1,44.8,34.5,58c-16.4-58,32.8-92.4,32.8-92.4s-16.4,18,9,54.1
					c14.5-112.4,112.4-194.5,112.4-194.5s-4.2,12.9-10.3,108.2c174.8-150,203.8-284,203.8-284l-12.6,126.9
					c179-212.8,94.7-414.1,94.7-414.1l63.1,117.8c67.3-383.2-77.3-531.9-77.3-531.9c22.2-28,38-60.9,46.7-95.6
					c16.4-61.8,18.7-151-37.7-262.1C1888.7,1231.9,1843.7,1263.4,1793.4,1285"/>
			</defs>
			<clipPath id="SVGID_32_">
				<use xlink:href="#SVGID_31_"  style="overflow:visible;"/>
			</clipPath>
			<g class="st22">
				
					<linearGradient id="SVGID_33_" gradientUnits="userSpaceOnUse" x1="2101.2336" y1="2009.7067" x2="2110.5898" y2="2009.7067" gradientTransform="matrix(157.47 0 0 -157.47 -330331.875 318404.0938)">
					<stop  offset="0" style="stop-color:#9A6940"/>
					<stop  offset="1" style="stop-color:#E2B885"/>
				</linearGradient>
				<rect x="497.5" y="1156.6" class="st23" width="1563.9" height="1558.1"/>
			</g>
		</g>
	</g>
</g>
</svg>
