<?xml version="1.0" encoding="utf-8"?>
<!-- Generator: Adobe Illustrator 23.0.0, SVG Export Plug-In . SVG Version: 6.00 Build 0)  -->
<svg version="1.1" id="Layer_1" xmlns="http://www.w3.org/2000/svg" xmlns:xlink="http://www.w3.org/1999/xlink" x="0px" y="0px"
	 viewBox="0 0 200.3 48.3" style="enable-background:new 0 0 200.3 48.3;" xml:space="preserve">
<style type="text/css">
	.st0{fill:#DAA16A;}
	.st1{fill:#0C2D48;}
	.st2{clip-path:url(#SVGID_2_);}
	.st3{fill:url(#SVGID_3_);}
	.st4{clip-path:url(#SVGID_5_);}
	.st5{fill:url(#SVGID_6_);}
	.st6{clip-path:url(#SVGID_8_);}
	.st7{fill:url(#SVGID_9_);}
	.st8{clip-path:url(#SVGID_11_);}
	.st9{fill:url(#SVGID_12_);}
	.st10{clip-path:url(#SVGID_14_);}
	.st11{fill:url(#SVGID_15_);}
	.st12{clip-path:url(#SVGID_17_);}
	.st13{fill:url(#SVGID_18_);}
	.st14{clip-path:url(#SVGID_20_);}
	.st15{fill:url(#SVGID_21_);}
	.st16{clip-path:url(#SVGID_23_);}
	.st17{fill:url(#SVGID_24_);}
	.st18{clip-path:url(#SVGID_26_);}
	.st19{fill:url(#SVGID_27_);}
	.st20{clip-path:url(#SVGID_29_);}
	.st21{fill:url(#SVGID_30_);}
	.st22{clip-path:url(#SVGID_32_);}
	.st23{fill:url(#SVGID_33_);}
</style>
<title>logo</title>
<g>
	<g>
		<path class="st0" d="M58.4,22V25h-1.3c-0.1-0.4-0.3-0.8-0.5-1.2c-0.1-0.2-0.3-0.4-0.5-0.5c-0.3-0.1-0.7-0.2-1.1-0.2h-2.1v4.7h1.3
			c0.2,0,0.5,0,0.7-0.1c0.2-0.1,0.3-0.2,0.4-0.4c0.1-0.3,0.2-0.6,0.3-0.9h1.1v3.9h-1.1c-0.1-0.3-0.2-0.6-0.3-0.8
			c-0.1-0.2-0.2-0.3-0.4-0.4c-0.2-0.1-0.4-0.1-0.7-0.1h-1.3V34H55c0.2,0,0.4,0,0.6,0c0.1,0,0.3-0.1,0.4-0.1s0.2-0.2,0.4-0.3
			s0.2-0.3,0.3-0.4c0.1-0.2,0.2-0.4,0.3-0.6c0.1-0.2,0.2-0.6,0.3-1h1.3l-0.2,3.5h-9.5v-0.6c0.2,0,0.4-0.1,0.6-0.2
			c0.1-0.1,0.2-0.2,0.3-0.3c0.1-0.2,0.1-0.3,0.1-0.5c0-0.2,0-0.5,0-0.8v-8.3c0-0.3,0-0.6,0-0.8c0-0.2,0-0.3-0.1-0.5
			c-0.1-0.1-0.2-0.2-0.3-0.3c-0.2-0.1-0.4-0.2-0.6-0.2V22L58.4,22L58.4,22z"/>
		<path class="st0" d="M68.8,24.4c0-0.3,0-0.7-0.1-1c0-0.2-0.1-0.3-0.3-0.5c-0.2-0.2-0.5-0.3-0.7-0.3V22H72v0.6
			c-0.2,0-0.4,0.1-0.6,0.2c-0.1,0.1-0.2,0.2-0.3,0.3c-0.1,0.2-0.1,0.3-0.1,0.5c0,0.2,0,0.5,0,0.8v6c0,0.7,0,1.4-0.2,2
			c-0.1,0.5-0.3,0.9-0.6,1.4c-0.3,0.4-0.6,0.7-1,0.9c-0.4,0.2-0.9,0.4-1.4,0.5c-0.6,0.1-1.1,0.1-1.7,0.1c-0.8,0-1.6-0.1-2.3-0.3
			c-0.6-0.2-1.1-0.5-1.5-0.9c-0.4-0.4-0.7-0.9-0.9-1.4c-0.2-0.7-0.3-1.4-0.3-2.1v-6.3c0-0.3,0-0.6,0-0.8c0-0.2,0-0.3-0.1-0.5
			c-0.1-0.1-0.2-0.2-0.3-0.3c-0.2-0.1-0.4-0.2-0.6-0.2V22h5.1v0.6c-0.2,0-0.4,0.1-0.6,0.2c-0.1,0.1-0.2,0.2-0.3,0.3
			c-0.1,0.1-0.1,0.3-0.1,0.5c0,0.3,0,0.5,0,0.8v6.4c0,0.5,0,0.9,0.1,1.4c0,0.4,0.2,0.8,0.4,1.1c0.2,0.3,0.4,0.5,0.7,0.7
			c0.4,0.2,0.8,0.3,1.2,0.3c0.7,0,1.1-0.1,1.5-0.4c0.3-0.3,0.6-0.7,0.7-1.1c0.1-0.7,0.2-1.4,0.2-2.1L68.8,24.4z"/>
		<path class="st0" d="M78.8,35.2h-5.1v-0.6c0.2,0,0.4-0.1,0.6-0.2c0.1-0.1,0.2-0.2,0.3-0.3c0.1-0.2,0.1-0.3,0.1-0.5
			c0-0.2,0-0.5,0-0.8v-8.3c0-0.3,0-0.6,0-0.8c0-0.2,0-0.3-0.1-0.5c-0.1-0.1-0.2-0.2-0.3-0.3c-0.2-0.1-0.4-0.2-0.6-0.2V22h5.7
			c0.7,0,1.3,0,1.9,0.2c0.5,0.1,1,0.2,1.4,0.5c0.7,0.3,1.1,0.9,1.4,1.6c0.1,0.4,0.2,0.8,0.2,1.3c0,0.6-0.1,1.1-0.3,1.6
			c-0.2,0.4-0.5,0.8-0.9,1.1c-0.5,0.3-1,0.6-1.5,0.8v0.1c0.5,0.2,0.8,0.5,1.2,0.8c0.3,0.4,0.6,0.8,0.8,1.3l0.6,1.3
			c0.2,0.5,0.5,0.9,0.8,1.3c0.2,0.3,0.6,0.5,0.9,0.5v0.6h-3.7c-0.5-0.7-0.9-1.5-1.3-2.3l-0.8-1.6c-0.1-0.4-0.3-0.7-0.6-1
			c-0.1-0.2-0.3-0.3-0.5-0.4c-0.2-0.1-0.5-0.1-0.8-0.1h-0.6v3.1c0,0.3,0,0.7,0.1,1c0,0.2,0.1,0.3,0.3,0.5c0.2,0.1,0.5,0.3,0.7,0.3
			L78.8,35.2z M77.7,23.1v5.4h1c0.4,0,0.9,0,1.3-0.2c0.3-0.1,0.6-0.3,0.8-0.6c0.2-0.3,0.3-0.6,0.4-0.9c0.1-0.4,0.1-0.7,0.1-1.1
			c0-0.9-0.2-1.5-0.6-2c-0.4-0.4-1-0.7-1.8-0.7C78.3,23.1,77.9,23.1,77.7,23.1"/>
		<path class="st0" d="M92.2,35.3c-1.9,0-3.3-0.6-4.3-1.7c-0.9-1.1-1.4-2.8-1.4-5c0-1.3,0.2-2.5,0.7-3.7c0.4-1,1.1-1.8,2-2.4
			c1-0.6,2.1-0.8,3.2-0.8c1.9,0,3.4,0.6,4.3,1.6c1,1.1,1.5,2.7,1.5,4.9c0,1.1-0.1,2.1-0.4,3.2c-0.2,0.8-0.7,1.5-1.2,2.2
			c-0.5,0.6-1.2,1-1.9,1.2C93.8,35.2,93,35.3,92.2,35.3 M89.5,28.4c0,1.9,0.2,3.4,0.7,4.3c0.5,0.9,1.2,1.4,2.1,1.4
			c0.5,0,0.9-0.1,1.3-0.4s0.7-0.7,0.8-1.1c0.2-0.5,0.4-1.1,0.5-1.7c0.1-0.7,0.1-1.5,0.1-2.2c0-1.1-0.1-2.2-0.3-3.2
			c-0.1-0.7-0.5-1.4-0.9-2c-0.4-0.4-1-0.7-1.6-0.7c-0.9,0-1.6,0.4-2.1,1.3C89.8,25.2,89.5,26.5,89.5,28.4"/>
		<path class="st0" d="M105.7,31.9c0.1,0.6,0.4,1.2,0.8,1.7c0.4,0.4,0.9,0.6,1.7,0.6c0.3,0,0.7-0.1,1-0.2c0.3-0.1,0.6-0.3,0.7-0.6
			c0.2-0.3,0.3-0.7,0.3-1.1c0-0.4-0.1-0.7-0.2-1c-0.2-0.3-0.4-0.6-0.7-0.8c-0.4-0.3-0.9-0.6-1.4-0.8c-0.5-0.2-0.9-0.5-1.4-0.8
			c-0.4-0.2-0.7-0.6-1-0.9c-0.3-0.3-0.5-0.7-0.7-1.1c-0.2-0.4-0.2-0.8-0.2-1.3c0-0.7,0.2-1.4,0.6-2c0.4-0.6,1-1,1.7-1.3
			c0.8-0.3,1.7-0.4,2.6-0.4c0.6,0,1.1,0,1.6,0.1c0.6,0.1,1.2,0.2,1.8,0.3V25h-1.3c-0.1-0.4-0.2-0.8-0.5-1.2
			c-0.2-0.3-0.4-0.5-0.7-0.7c-0.3-0.1-0.7-0.2-1.1-0.2c-0.3,0-0.7,0-1,0.2c-0.3,0.1-0.5,0.3-0.7,0.6c-0.2,0.3-0.3,0.6-0.3,0.9
			c0,0.3,0.1,0.7,0.2,1c0.2,0.3,0.4,0.6,0.7,0.8c0.5,0.3,1,0.6,1.5,0.9c0.7,0.3,1.3,0.7,1.9,1.2c0.9,0.7,1.4,1.8,1.3,2.9
			c0,0.7-0.2,1.5-0.6,2.1c-0.4,0.6-0.9,1.1-1.6,1.4c-0.8,0.3-1.6,0.5-2.4,0.5c-0.7,0-1.4,0-2.1-0.1c-0.7-0.1-1.4-0.2-2-0.3v-3
			L105.7,31.9L105.7,31.9z"/>
		<path class="st0" d="M124.3,22V25H123c-0.1-0.4-0.3-0.8-0.5-1.2c-0.1-0.2-0.3-0.4-0.5-0.5c-0.3-0.1-0.7-0.2-1.1-0.2h-2.1v4.7h1.3
			c0.2,0,0.5,0,0.7-0.1c0.2-0.1,0.3-0.2,0.4-0.4c0.1-0.3,0.2-0.6,0.3-0.9h1.1v3.9h-1.1c-0.1-0.3-0.2-0.6-0.3-0.8
			c-0.1-0.2-0.2-0.3-0.4-0.4c-0.2-0.1-0.4-0.1-0.7-0.1h-1.3V34h2.1c0.2,0,0.4,0,0.6,0c0.1,0,0.3-0.1,0.4-0.1s0.2-0.2,0.4-0.3
			s0.2-0.3,0.3-0.4c0.1-0.2,0.2-0.4,0.3-0.6c0.1-0.3,0.2-0.6,0.3-1h1.3l-0.2,3.5h-9.5v-0.6c0.2,0,0.4-0.1,0.6-0.2
			c0.1-0.1,0.2-0.2,0.3-0.3c0.1-0.2,0.1-0.3,0.1-0.5c0-0.2,0-0.5,0-0.8v-8.3c0-0.3,0-0.6,0-0.8c0-0.2,0-0.3-0.1-0.5
			c-0.1-0.1-0.2-0.2-0.3-0.3c-0.2-0.1-0.4-0.2-0.6-0.2V22L124.3,22L124.3,22z"/>
		<path class="st0" d="M135.6,22.2v2.8h-1.3c-0.1-0.6-0.3-1.2-0.7-1.6c-0.3-0.3-0.8-0.5-1.3-0.5c-1,0-1.8,0.5-2.3,1.5
			c-0.5,1-0.8,2.4-0.8,4.3c0,1.8,0.2,3.2,0.7,4.1c0.5,0.9,1.2,1.4,2.1,1.4c0.4,0,0.8-0.1,1.2-0.2c0.3-0.2,0.6-0.4,0.7-0.7
			c0.2-0.4,0.4-0.9,0.5-1.3h1.3v2.9c-0.7,0.2-1.4,0.3-1.9,0.4c-0.6,0.1-1.2,0.1-1.8,0.1c-1.3,0-2.4-0.2-3.3-0.7
			c-0.8-0.5-1.5-1.3-1.9-2.2c-0.4-1-0.6-2.2-0.6-3.7c0-1.3,0.2-2.5,0.7-3.7c0.4-1,1.2-1.8,2.1-2.4c1-0.6,2.2-0.9,3.3-0.8
			c0.6,0,1.2,0,1.8,0.1C134.5,22,135,22.1,135.6,22.2"/>
		<path class="st0" d="M145.9,24.4c0-0.3,0-0.7-0.1-1c0-0.2-0.1-0.3-0.3-0.5c-0.2-0.2-0.5-0.3-0.7-0.3V22h4.3v0.6
			c-0.2,0-0.4,0.1-0.6,0.2c-0.1,0.1-0.2,0.2-0.3,0.3c-0.1,0.2-0.1,0.3-0.1,0.5c0,0.2,0,0.5,0,0.8v6c0,0.7,0,1.4-0.2,2
			c-0.1,0.5-0.3,0.9-0.6,1.4c-0.3,0.4-0.6,0.7-1,0.9c-0.4,0.2-0.9,0.4-1.3,0.5c-0.6,0.1-1.1,0.1-1.7,0.1c-0.8,0-1.6-0.1-2.3-0.3
			c-0.6-0.2-1.1-0.5-1.5-0.9c-0.4-0.4-0.7-0.9-0.9-1.4c-0.2-0.7-0.3-1.4-0.3-2.1v-6.3c0-0.3,0-0.6,0-0.8c0-0.2,0-0.3-0.1-0.5
			c-0.1-0.1-0.2-0.2-0.3-0.3c-0.2-0.1-0.4-0.2-0.6-0.2V22h5.1v0.6c-0.2,0-0.4,0.1-0.6,0.2c-0.1,0.1-0.2,0.2-0.3,0.3
			c-0.1,0.1-0.1,0.3-0.1,0.5c0,0.3,0,0.6,0,0.8v6.4c0,0.5,0,0.9,0.1,1.4c0,0.4,0.2,0.8,0.4,1.1c0.2,0.3,0.4,0.5,0.7,0.7
			c0.4,0.2,0.8,0.3,1.2,0.3c0.7,0,1.1-0.1,1.5-0.4c0.3-0.3,0.6-0.7,0.7-1.1c0.1-0.7,0.2-1.4,0.2-2.1L145.9,24.4z"/>
		<path class="st0" d="M155.8,35.2h-5.1v-0.6c0.2,0,0.4-0.1,0.6-0.2c0.1-0.1,0.2-0.2,0.3-0.3c0.1-0.2,0.1-0.3,0.1-0.5
			c0-0.2,0-0.5,0-0.8v-8.3c0-0.3,0-0.6,0-0.8c0-0.2,0-0.3-0.1-0.5c-0.1-0.1-0.2-0.2-0.3-0.3c-0.2-0.1-0.4-0.2-0.6-0.2V22h5.7
			c0.7,0,1.3,0,1.9,0.2c0.5,0.1,1,0.2,1.4,0.5c0.3,0.2,0.6,0.4,0.8,0.7c0.2,0.3,0.4,0.6,0.5,1c0.1,0.4,0.2,0.8,0.2,1.3
			c0,0.6-0.1,1.1-0.3,1.6c-0.2,0.4-0.5,0.8-0.9,1.1c-0.5,0.3-1,0.6-1.5,0.8v0.1c0.5,0.2,0.8,0.5,1.2,0.8c0.3,0.4,0.6,0.8,0.8,1.3
			l0.6,1.3c0.2,0.5,0.5,0.9,0.8,1.3c0.2,0.3,0.6,0.5,0.9,0.5v0.6h-3.7c-0.5-0.7-0.9-1.5-1.3-2.3l-0.8-1.6c-0.1-0.4-0.3-0.7-0.6-1
			c-0.1-0.2-0.3-0.3-0.5-0.4c-0.2-0.1-0.5-0.1-0.8-0.1h-0.6v3.1c0,0.3,0,0.7,0.1,1c0,0.2,0.1,0.3,0.3,0.5c0.2,0.1,0.5,0.3,0.7,0.3
			L155.8,35.2z M154.8,23.1v5.4h1c0.4,0,0.9,0,1.3-0.2c0.3-0.1,0.6-0.3,0.8-0.6c0.2-0.3,0.3-0.6,0.4-0.9c0.1-0.4,0.1-0.7,0.1-1.1
			c0-0.9-0.2-1.5-0.6-2c-0.4-0.4-1-0.7-1.8-0.7C155.3,23.1,154.9,23.1,154.8,23.1"/>
		<path class="st0" d="M167.9,32.7c0,0.2,0,0.4,0,0.6c0,0.2,0,0.3,0.1,0.5c0,0.1,0.1,0.2,0.2,0.3c0.1,0.1,0.2,0.2,0.3,0.2
			c0.1,0.1,0.3,0.1,0.5,0.2v0.6h-5.1v-0.6c0.2,0,0.4-0.1,0.6-0.2c0.1-0.1,0.2-0.2,0.3-0.3c0.1-0.2,0.1-0.3,0.1-0.5
			c0-0.2,0-0.5,0-0.8v-8.4c0-0.3,0-0.6,0-0.8c0-0.2,0-0.3-0.1-0.5c-0.1-0.1-0.2-0.2-0.3-0.3c-0.2-0.1-0.4-0.2-0.6-0.2v-0.6h5.1v0.6
			c-0.2,0-0.4,0.1-0.6,0.2c-0.1,0.1-0.2,0.2-0.3,0.3c-0.1,0.1-0.1,0.3-0.1,0.5c0,0.3,0,0.5,0,0.8L167.9,32.7L167.9,32.7z"/>
		<path class="st0" d="M173.5,35.2v-0.6c0.2,0,0.4-0.1,0.7-0.2c0.1-0.1,0.3-0.2,0.4-0.3c0.1-0.2,0.1-0.3,0.1-0.5c0-0.2,0-0.5,0-0.8
			v-9.7h-0.8c-0.3,0-0.6,0-0.9,0.1c-0.2,0.1-0.4,0.2-0.5,0.4c-0.2,0.2-0.3,0.5-0.4,0.8c-0.1,0.3-0.2,0.6-0.3,0.9h-1.3V22h11.4v3.4
			h-1.3c-0.1-0.4-0.2-0.8-0.3-1c0-0.2-0.1-0.4-0.2-0.5c-0.1-0.1-0.2-0.3-0.3-0.4c-0.1-0.1-0.2-0.2-0.3-0.2c-0.1-0.1-0.3-0.1-0.4-0.1
			c-0.2,0-0.4,0-0.7,0h-0.7v9.7c0,0.3,0,0.6,0,0.8c0,0.1,0,0.3,0.1,0.4c0,0.1,0.1,0.2,0.2,0.3c0.1,0.1,0.2,0.1,0.3,0.2
			c0.2,0.1,0.4,0.1,0.5,0.1v0.6L173.5,35.2z"/>
		<path class="st0" d="M189.9,30.1v2.6c0,0.3,0,0.5,0,0.8c0,0.1,0,0.3,0.1,0.4c0,0.1,0.1,0.2,0.2,0.3c0.1,0.1,0.2,0.1,0.3,0.2
			c0.2,0.1,0.4,0.1,0.5,0.1v0.6h-5.3v-0.6c0.2,0,0.4-0.1,0.6-0.2c0.1-0.1,0.3-0.2,0.4-0.3c0.1-0.2,0.1-0.3,0.1-0.5
			c0-0.3,0-0.5,0-0.8v-2.6l-2.6-5.5c-0.2-0.5-0.4-0.8-0.5-1c-0.1-0.2-0.2-0.4-0.4-0.6c-0.1-0.1-0.2-0.2-0.3-0.3
			c-0.1,0-0.2-0.1-0.4-0.1V22h5.2v0.6c-0.5,0.1-0.8,0.3-0.8,0.7c0,0.2,0,0.4,0.1,0.6c0.1,0.2,0.2,0.5,0.4,0.9l1.6,3.6l1.8-3.5
			c0.1-0.3,0.3-0.6,0.4-0.9c0.1-0.2,0.1-0.5,0.1-0.7c0-0.2-0.1-0.4-0.2-0.6c-0.1-0.1-0.3-0.2-0.6-0.2v-0.6h3.9v0.6
			c-0.1,0-0.3,0.1-0.4,0.2c-0.1,0.1-0.3,0.2-0.4,0.3c-0.2,0.2-0.3,0.4-0.5,0.7c-0.2,0.3-0.4,0.7-0.7,1.1L189.9,30.1z"/>
		<path class="st1" d="M71.8,45.9l0.3-0.3c0.6,0.6,1.4,0.9,2.2,0.9c0.9,0,1.5-0.5,1.5-1.2v0c0-0.6-0.3-1-1.7-1.3
			c-1.5-0.3-2-0.8-2-1.7l0,0c0-0.9,0.8-1.6,1.9-1.6c0.8,0,1.5,0.2,2.1,0.7l-0.3,0.4c-0.5-0.5-1.1-0.7-1.8-0.7
			c-0.9,0-1.5,0.5-1.5,1.1v0c0,0.7,0.3,1,1.8,1.3c1.4,0.3,2,0.8,2,1.7v0c0,1-0.8,1.6-2,1.6C73.3,46.9,72.4,46.6,71.8,45.9"/>
		<polygon class="st1" points="77.7,40.8 82,40.8 82,41.2 78.2,41.2 78.2,43.6 81.6,43.6 81.6,44 78.2,44 78.2,46.4 82.1,46.4 
			82.1,46.8 77.7,46.8 		"/>
		<path class="st1" d="M83.3,43.8L83.3,43.8c0-1.7,1.3-3.2,3-3.2c0.9,0,1.7,0.3,2.4,1L88.3,42c-0.5-0.6-1.3-0.9-2-0.9
			c-1.5,0-2.5,1.2-2.5,2.7v0c0,1.5,1.1,2.7,2.5,2.7c0.9,0,1.5-0.3,2.1-0.9l0.3,0.3c-0.7,0.6-1.3,1.1-2.4,1.1
			C84.5,46.9,83.2,45.6,83.3,43.8"/>
		<path class="st1" d="M89.8,44.3v-3.5h0.5v3.5c0,1.5,0.8,2.3,2,2.3c1.2,0,2-0.8,2-2.2v-3.5h0.5v3.5c0,1.7-1,2.7-2.5,2.7
			C90.8,46.9,89.8,46,89.8,44.3"/>
		<path class="st1" d="M96.5,40.8H99c0.6,0,1.2,0.2,1.7,0.6c0.3,0.3,0.5,0.7,0.5,1.1v0c0,1-0.8,1.6-1.8,1.7l2,2.6h-0.6l-1.9-2.5h-2
			v2.5h-0.5L96.5,40.8L96.5,40.8z M99,43.9c1,0,1.8-0.5,1.8-1.4v0c0-0.8-0.6-1.3-1.7-1.3h-2.1v2.7L99,43.9L99,43.9z"/>
		<rect x="102.8" y="40.8" class="st1" width="0.5" height="6.1"/>
		<polygon class="st1" points="106.8,41.2 104.7,41.2 104.7,40.8 109.3,40.8 109.3,41.2 107.2,41.2 107.2,46.8 106.8,46.8 		"/>
		<polygon class="st1" points="112.7,44.4 110.1,40.8 110.6,40.8 112.9,44 115.2,40.8 115.7,40.8 113.1,44.4 113.1,46.8 112.7,46.8 
					"/>
		<path class="st1" d="M119.1,45.9l0.3-0.3c0.6,0.6,1.4,0.9,2.2,0.9c0.9,0,1.5-0.5,1.5-1.2v0c0-0.6-0.3-1-1.7-1.3
			c-1.5-0.3-2-0.8-2-1.7l0,0c0-0.9,0.8-1.6,1.9-1.6c0.8,0,1.5,0.2,2.1,0.7l-0.3,0.4c-0.5-0.5-1.1-0.7-1.8-0.7
			c-0.9,0-1.5,0.5-1.5,1.1v0c0,0.7,0.3,1,1.8,1.3c1.4,0.3,2,0.8,2,1.7v0c0,1-0.8,1.6-2,1.6C120.6,46.9,119.8,46.6,119.1,45.9"/>
		<path class="st1" d="M124.8,43.8L124.8,43.8c0-1.7,1.2-3.2,3.1-3.2c1.8,0,3,1.5,3,3.1v0c0,1.7-1.2,3.1-3.1,3.1
			C126,46.9,124.8,45.5,124.8,43.8 M130.4,43.8L130.4,43.8c0-1.5-1.1-2.7-2.6-2.7s-2.6,1.2-2.6,2.7v0c0,1.5,1.1,2.7,2.6,2.7
			C129.3,46.5,130.4,45.3,130.4,43.8"/>
		<polygon class="st1" points="132.4,40.8 132.8,40.8 132.8,46.4 136.4,46.4 136.4,46.8 132.4,46.8 		"/>
		<path class="st1" d="M137.5,44.3v-3.5h0.5v3.5c0,1.5,0.8,2.3,2,2.3c1.2,0,2-0.8,2-2.2v-3.5h0.5v3.5c0,1.7-1,2.7-2.5,2.7
			C138.5,46.9,137.5,46,137.5,44.3"/>
		<polygon class="st1" points="145.8,41.2 143.7,41.2 143.7,40.8 148.4,40.8 148.4,41.2 146.3,41.2 146.3,46.8 145.8,46.8 		"/>
		<rect x="149.8" y="40.8" class="st1" width="0.5" height="6.1"/>
		<path class="st1" d="M151.8,43.8L151.8,43.8c0-1.7,1.2-3.2,3.1-3.2s3,1.5,3,3.1v0c0,1.7-1.2,3.1-3.1,3.1
			C153,46.9,151.8,45.5,151.8,43.8 M157.5,43.8L157.5,43.8c0-1.5-1.1-2.7-2.6-2.7s-2.5,1.2-2.5,2.7v0c0,1.5,1.1,2.7,2.6,2.7
			C156.4,46.5,157.5,45.3,157.5,43.8"/>
		<polygon class="st1" points="159.5,40.8 159.9,40.8 164.1,46 164.1,40.8 164.5,40.8 164.5,46.8 164.2,46.8 159.9,41.4 159.9,46.8 
			159.5,46.8 		"/>
		<path class="st1" d="M165.9,45.9l0.3-0.3c0.6,0.6,1.4,0.9,2.2,0.9c0.9,0,1.5-0.5,1.5-1.2v0c0-0.6-0.3-1-1.7-1.3
			c-1.5-0.3-2-0.8-2-1.7l0,0c0-0.9,0.8-1.6,1.9-1.6c0.8,0,1.5,0.2,2.1,0.7l-0.3,0.4c-0.5-0.5-1.1-0.7-1.8-0.7
			c-0.9,0-1.5,0.5-1.5,1.1v0c0,0.7,0.3,1,1.8,1.3c1.4,0.3,2,0.8,2,1.7v0c0,1-0.8,1.6-2,1.6C167.4,46.9,166.6,46.6,165.9,45.9"/>
	</g>
	<g>
		<path class="st1" d="M7.1,14.4c0,0,15.4-8.9,35-0.1c3,23.9-17.3,32-17.3,32S3.6,37.2,7.1,14.4"/>
		<g>
			<g>
				<defs>
					<path id="SVGID_1_" d="M15.1,38.4c-6.2-6.6-8.8-14.5-7.4-23.6c3.1-1.5,6.3-2.6,9.7-3.1c5.6-1,14.3-1.3,24.2,3.1
						c1.1,9.5-1.4,17.6-7.3,24.1c-2.7,2.8-5.8,5.2-9.4,6.8C21.2,43.8,17.9,41.4,15.1,38.4 M17.1,10.5C10.8,11.6,7,13.8,6.8,13.9
						L6.5,14l0,0.3c-0.8,5.3-0.4,10.3,1.3,14.9c1.4,3.8,3.6,7.2,6.4,10.1c3,3.1,6.5,5.7,10.4,7.5l0.2,0.1l0.2-0.1
						c0.2-0.1,5.3-2.1,10-7.2c2.7-2.9,4.9-6.3,6.2-10.1c1.7-4.6,2.2-9.8,1.5-15.4l0-0.3l-0.3-0.1c-5.7-2.5-11.8-3.9-18-3.9
						C21.9,9.8,19.5,10,17.1,10.5"/>
				</defs>
				<clipPath id="SVGID_2_">
					<use xlink:href="#SVGID_1_"  style="overflow:visible;"/>
				</clipPath>
				<g class="st2">
					
						<linearGradient id="SVGID_3_" gradientUnits="userSpaceOnUse" x1="-516.7981" y1="485.6298" x2="-516.6591" y2="485.6298" gradientTransform="matrix(269.01 0 0 -269.01 139029.7656 130667.6563)">
						<stop  offset="0" style="stop-color:#E2B885"/>
						<stop  offset="1" style="stop-color:#9A6940"/>
					</linearGradient>
					<rect x="5.7" y="9.8" class="st3" width="37.8" height="37.1"/>
				</g>
			</g>
		</g>
		<polygon class="st0" points="25,1.4 25.8,3.7 28.2,3.7 26.2,5.2 27,7.5 25,6.1 23,7.5 23.7,5.2 21.7,3.7 24.2,3.7 		"/>
		<polygon class="st0" points="33.1,3.7 33.7,5.2 35.3,5.2 34,6.2 34.5,7.8 33.1,6.8 31.8,7.8 32.3,6.2 31,5.2 32.6,5.2 		"/>
		<polygon class="st0" points="41.1,5.9 41.6,7.5 43.2,7.5 41.9,8.5 42.4,10.1 41.1,9.1 39.7,10.1 40.2,8.5 38.9,7.5 40.5,7.5 		"/>
		<polygon class="st0" points="8.1,5.9 8.6,7.5 10.3,7.5 8.9,8.5 9.5,10.1 8.1,9.1 6.8,10.1 7.3,8.5 5.9,7.5 7.6,7.5 		"/>
		<polygon class="st0" points="16,3.7 16.5,5.2 18.2,5.2 16.8,6.2 17.4,7.8 16,6.8 14.7,7.8 15.2,6.2 13.8,5.2 15.5,5.2 		"/>
		<g>
			<g>
				<defs>
					<path id="SVGID_4_" d="M20,17.1l0.9,2.7l0.2-0.1c0,0,0-0.1-0.8-2.1c2,0.9,3-0.1,4.2-1.4c2.3,2.9,4.2,1.4,4.2,1.4l-0.8,2.2
						l0.3,0.1c0,0,0.1-0.3,0.8-2.8c-3,1.3-4.1-1.3-4.6-1.9C22.8,18.9,20,17.1,20,17.1"/>
				</defs>
				<clipPath id="SVGID_5_">
					<use xlink:href="#SVGID_4_"  style="overflow:visible;"/>
				</clipPath>
				<g class="st4">
					
						<linearGradient id="SVGID_6_" gradientUnits="userSpaceOnUse" x1="-516.091" y1="477.2031" x2="-515.9553" y2="477.2031" gradientTransform="matrix(66.76 0 0 -66.76 34473.6328 31875.6582)">
						<stop  offset="0" style="stop-color:#9A6940"/>
						<stop  offset="1" style="stop-color:#E2B885"/>
					</linearGradient>
					<rect x="20" y="15.3" class="st5" width="9.2" height="4.6"/>
				</g>
			</g>
		</g>
		<g>
			<g>
				<defs>
					<path id="SVGID_7_" d="M20.3,16.6c0,0-0.2-0.1-0.2,0c2.4,1.6,3.7-0.6,4.5-2.2c1.9,4.4,4.5,2.2,4.5,2.2s-0.1,0-0.2,0
						c-2.8,0.8-3.6-1.8-4.3-3C23,17.8,20.3,16.6,20.3,16.6"/>
				</defs>
				<clipPath id="SVGID_8_">
					<use xlink:href="#SVGID_7_"  style="overflow:visible;"/>
				</clipPath>
				<g class="st6">
					
						<linearGradient id="SVGID_9_" gradientUnits="userSpaceOnUse" x1="-516.0778" y1="476.8083" x2="-515.942" y2="476.8083" gradientTransform="matrix(65.64 0 0 -65.64 33894.9023 31314.0137)">
						<stop  offset="0" style="stop-color:#9A6940"/>
						<stop  offset="1" style="stop-color:#E2B885"/>
					</linearGradient>
					<rect x="20.1" y="13.7" class="st7" width="9" height="5.2"/>
				</g>
			</g>
		</g>
		<g>
			<g>
				<defs>
					<path id="SVGID_10_" d="M19.6,16.3c0,0.2,0.2,0.4,0.4,0.4c0.2,0,0.4-0.2,0.4-0.4c0-0.2-0.2-0.4-0.4-0.4c0,0,0,0,0,0
						C19.8,15.9,19.6,16.1,19.6,16.3L19.6,16.3"/>
				</defs>
				<clipPath id="SVGID_11_">
					<use xlink:href="#SVGID_10_"  style="overflow:visible;"/>
				</clipPath>
				<g class="st8">
					
						<linearGradient id="SVGID_12_" gradientUnits="userSpaceOnUse" x1="-502.636" y1="371.6037" x2="-502.4969" y2="371.6037" gradientTransform="matrix(6.28 0 0 -6.28 3175.8745 2350.0012)">
						<stop  offset="0" style="stop-color:#9A6940"/>
						<stop  offset="1" style="stop-color:#E2B885"/>
					</linearGradient>
					<rect x="19.6" y="15.9" class="st9" width="0.9" height="0.9"/>
				</g>
			</g>
		</g>
		<g>
			<g>
				<defs>
					<path id="SVGID_13_" d="M28.7,16.3c0,0.2,0.2,0.4,0.4,0.4s0.4-0.2,0.4-0.4c0-0.2-0.2-0.4-0.4-0.4c0,0,0,0,0,0
						C28.9,15.9,28.7,16.1,28.7,16.3L28.7,16.3"/>
				</defs>
				<clipPath id="SVGID_14_">
					<use xlink:href="#SVGID_13_"  style="overflow:visible;"/>
				</clipPath>
				<g class="st10">
					
						<linearGradient id="SVGID_15_" gradientUnits="userSpaceOnUse" x1="-511.7322" y1="371.6037" x2="-511.5965" y2="371.6037" gradientTransform="matrix(6.28 0 0 -6.28 3242.1045 2350.0012)">
						<stop  offset="0" style="stop-color:#9A6940"/>
						<stop  offset="1" style="stop-color:#E2B885"/>
					</linearGradient>
					<rect x="28.7" y="15.9" class="st11" width="0.9" height="0.9"/>
				</g>
			</g>
		</g>
		<g>
			<g>
				<defs>
					<path id="SVGID_16_" d="M24.2,13.3c0,0.2,0.2,0.4,0.4,0.4s0.4-0.2,0.4-0.4s-0.2-0.4-0.4-0.4l0,0C24.4,12.9,24.2,13.1,24.2,13.3
						L24.2,13.3"/>
				</defs>
				<clipPath id="SVGID_17_">
					<use xlink:href="#SVGID_16_"  style="overflow:visible;"/>
				</clipPath>
				<g class="st12">
					
						<linearGradient id="SVGID_18_" gradientUnits="userSpaceOnUse" x1="-507.2267" y1="368.6002" x2="-507.0876" y2="368.6002" gradientTransform="matrix(6.28 0 0 -6.28 3209.2944 2328.1313)">
						<stop  offset="0" style="stop-color:#9A6940"/>
						<stop  offset="1" style="stop-color:#E2B885"/>
					</linearGradient>
					<rect x="24.2" y="12.9" class="st13" width="0.9" height="0.9"/>
				</g>
			</g>
		</g>
		<g>
			<g>
				<defs>
					<path id="SVGID_19_" d="M22.1,18.5c0,0.2,0.1,0.3,0.3,0.3c0.2,0,0.3-0.1,0.3-0.3s-0.1-0.3-0.3-0.3h0
						C22.2,18.2,22.1,18.4,22.1,18.5"/>
				</defs>
				<clipPath id="SVGID_20_">
					<use xlink:href="#SVGID_19_"  style="overflow:visible;"/>
				</clipPath>
				<g class="st14">
					
						<linearGradient id="SVGID_21_" gradientUnits="userSpaceOnUse" x1="-501.7582" y1="343.938" x2="-501.6192" y2="343.938" gradientTransform="matrix(4.99 0 0 -4.99 2525.1826 1734.7877)">
						<stop  offset="0" style="stop-color:#9A6940"/>
						<stop  offset="1" style="stop-color:#E2B885"/>
					</linearGradient>
					<rect x="22.1" y="18.2" class="st15" width="0.7" height="0.7"/>
				</g>
			</g>
		</g>
		<g>
			<g>
				<defs>
					<path id="SVGID_22_" d="M26.5,18.5c0,0.2,0.1,0.3,0.3,0.3s0.3-0.1,0.3-0.3s-0.1-0.3-0.3-0.3C26.6,18.2,26.5,18.3,26.5,18.5
						L26.5,18.5"/>
				</defs>
				<clipPath id="SVGID_23_">
					<use xlink:href="#SVGID_22_"  style="overflow:visible;"/>
				</clipPath>
				<g class="st16">
					
						<linearGradient id="SVGID_24_" gradientUnits="userSpaceOnUse" x1="-507.3064" y1="343.938" x2="-507.1674" y2="343.938" gradientTransform="matrix(4.99 0 0 -4.99 2557.2725 1734.7877)">
						<stop  offset="0" style="stop-color:#9A6940"/>
						<stop  offset="1" style="stop-color:#E2B885"/>
					</linearGradient>
					<rect x="26.5" y="18.2" class="st17" width="0.7" height="0.7"/>
				</g>
			</g>
		</g>
		<g>
			<g>
				<defs>
					<path id="SVGID_25_" d="M24.2,18.7c0,0.3,0.2,0.5,0.5,0.5c0.3,0,0.5-0.2,0.5-0.5s-0.2-0.5-0.5-0.5
						C24.4,18.2,24.2,18.4,24.2,18.7"/>
				</defs>
				<clipPath id="SVGID_26_">
					<use xlink:href="#SVGID_25_"  style="overflow:visible;"/>
				</clipPath>
				<g class="st18">
					
						<linearGradient id="SVGID_27_" gradientUnits="userSpaceOnUse" x1="-508.317" y1="383.971" x2="-508.1781" y2="383.971" gradientTransform="matrix(6.85 0 0 -6.85 3506.7346 2648.8474)">
						<stop  offset="0" style="stop-color:#9A6940"/>
						<stop  offset="1" style="stop-color:#E2B885"/>
					</linearGradient>
					<rect x="24.2" y="18.2" class="st19" width="0.9" height="0.9"/>
				</g>
			</g>
		</g>
		<g>
			<g>
				<defs>
					<polygon id="SVGID_28_" points="23.7,18.7 24.6,17.5 25.5,18.7 24.6,16.8 					"/>
				</defs>
				<clipPath id="SVGID_29_">
					<use xlink:href="#SVGID_28_"  style="overflow:visible;"/>
				</clipPath>
				<g class="st20">
					
						<linearGradient id="SVGID_30_" gradientUnits="userSpaceOnUse" x1="-512.1863" y1="430.3203" x2="-512.0473" y2="430.3203" gradientTransform="matrix(12.46 0 0 -12.46 6405.9458 5379.5762)">
						<stop  offset="0" style="stop-color:#9A6940"/>
						<stop  offset="1" style="stop-color:#E2B885"/>
					</linearGradient>
					<rect x="23.7" y="16.8" class="st21" width="1.7" height="1.9"/>
				</g>
			</g>
		</g>
		<g>
			<g>
				<defs>
					<path id="SVGID_31_" d="M25.6,35.2c-0.3,0.3-0.9,0.3-0.9,0.3h0c0,0-0.6,0-0.9-0.3c-0.3-0.3-0.5-0.5-0.8-0.1
						c0.6,0.1,1.1,0.5,1.3,1.1c-0.2-0.2-0.3-0.4-0.7-0.4c0.2,0.3,0.4,1,1.1,1h0c0.7,0,1-0.7,1.1-1c-0.3,0-0.5,0.2-0.7,0.4
						c0.2-0.6,0.7-1,1.3-1.1c-0.1-0.1-0.2-0.2-0.4-0.2C25.8,34.9,25.7,35,25.6,35.2 M20.4,28.2c0.6,0.4,1.5-0.4,0.8-0.7
						c-0.1,0.4-0.7,0.4-0.6,0.1c0.1-0.1,0.1-0.2,0-0.3c0,0,0,0-0.1,0c0,0,0,0-0.1,0C20.2,27.2,19.9,27.9,20.4,28.2 M28.7,27.2
						c-0.1,0.1-0.1,0.2-0.1,0.3c0,0,0,0,0,0.1c0.1,0.3-0.5,0.3-0.6-0.1c-0.7,0.3,0.2,1.1,0.8,0.7C29.4,27.9,29,27.2,28.7,27.2
						C28.8,27.2,28.7,27.2,28.7,27.2 M26.7,36.3c0,0,1.4-0.5,1.8-0.9c0.4-0.5,0.8-1.7-1-2.8c1.6,0.3,1.9,2.3,1.9,2.3
						s0.2,3.3-2.6,3.9c-0.5,0.1-1,0.1-1.4-0.1c-0.3-0.1-0.5-0.2-0.8-0.2l0,0c-0.3,0-0.6,0-0.8,0.2c-0.5,0.2-1,0.2-1.4,0.1
						c-2.8-0.6-2.6-3.9-2.6-3.9s0.4-2,1.9-2.3c-1.8,1.1-1.4,2.4-1,2.8c0.4,0.5,1.8,0.9,1.8,0.9s-1.3,0.2-2.2-0.5
						c0,0.2,0.1,0.5,0.1,0.7c0.9,0.2,1.1,0.5,2.1,0.5c-0.6,0.2-1.9,0.1-1.9,0.1s0.6,0.6,2.3,0.4c-0.1,0.2-1.2,0.3-1.8,0.3
						c0.2,0.3,0.5,0.7,2.2,0.1c0,0.2-1.1,0.6-1.1,0.6c0.4,0.1,0.8,0.1,1.3,0c0.6-0.2,0.3-0.3,0.6-0.4c0.3-0.1,0.1-1.2,0.1-1.2
						s-0.7-0.1-0.8-0.6c-0.2-0.5-2-0.8-1-2.4c-0.1,0.6-0.1,0.9,0.4,1.2c0.1-0.3,0.5-0.5,0.8-0.3h0c0.5,0.1,0.3,0.4,1.1,0.5l0,0
						c0.8,0,0.6-0.3,1.1-0.5c0.3-0.1,0.7,0,0.8,0.3v0c0.5-0.3,0.4-0.6,0.4-1.2c1,1.6-0.8,2-1,2.4c-0.2,0.5-0.9,0.6-0.9,0.6
						S24.8,38,25,38.1c0.3,0.1,0,0.1,0.6,0.4c0.4,0.1,0.8,0.1,1.3,0c0,0-1.1-0.4-1.1-0.6c1.7,0.6,2,0.2,2.2-0.1
						c-0.6,0.1-1.7,0-1.8-0.3c1.7,0.2,2.3-0.4,2.3-0.4s-1.3,0.2-1.9-0.1c1,0,1.2-0.3,2.1-0.5c0.1-0.2,0.1-0.5,0.1-0.7
						c-0.5,0.4-1.1,0.6-1.7,0.6C27,36.4,26.9,36.3,26.7,36.3 M18,29.5c0.1-0.7,0.3-1.3,0.5-1.9c0,0-0.4,1.9,0.3,2.2
						c0.7,0.2,1.6-0.2,2.4,0.6c-1.4-0.2-1.8-0.2-2.7,0.1c-0.1,0-0.2,0.1-0.3,0.1C17.8,30.5,17.9,30,18,29.5 M20,29
						c-0.7-0.2-1-1.5-1-1.5c0.2,0.5,0.6,0.9,1.1,1.1c0.8,0.5,1.4,0.6,1.6,1.3C21.3,29.5,20.7,29.2,20,29 M29.2,28.7
						c0.5-0.2,0.8-0.7,1.1-1.1c0,0-0.3,1.2-1,1.5c-0.7,0.2-1.2,0.5-1.7,1C27.8,29.3,28.3,29.2,29.2,28.7 M30.6,29.7
						c0.7-0.2,0.3-2.2,0.3-2.2c0.2,0.6,0.4,1.3,0.5,1.9c0,0.6,0.2,1.2-0.5,0.9c-0.9-0.3-1.3-0.3-2.7-0.1
						C29,29.5,29.9,29.9,30.6,29.7 M20,27.7c0-0.2-0.3-0.3-0.6-0.3c0,0,0.8-0.6,1.1-0.5c0.4,0,1.5,0.3,1.9,1.4
						c0.3,0.9,0.3,1.4,0.3,1.6c0,0.1-0.7,1.9-0.7,1.9l0.4-2.6c0-0.2-0.1-0.4-0.2-0.5c-0.2,0-0.4,0.1-0.7,0.1
						C20.8,28.7,20,28.5,20,27.7 M26.7,29.9c0-0.1,0-0.5,0.3-1.6c0.3-1,1.5-1.4,1.9-1.4c0.4,0,1.1,0.5,1.1,0.5c-0.3,0-0.6,0-0.6,0.3
						c0,1.2-1.7,1-2.1,0.9c-0.1,0.2-0.2,0.3-0.2,0.5l0.4,2.6C27.4,31.8,26.7,30,26.7,29.9 M19.3,26.1c0.1-0.7,1-1.5,1.7-1.9
						c0,0-0.8,0.8-0.8,1c0,0.2-0.2,0.3,0.3,0.6s1.1,0.8,1.2,0.7c0.1-0.2,0.1-0.5,0.1-0.7c0,0,0.2,1.6,0.6,2.1
						C21.8,27.1,21.7,26.2,19.3,26.1 M28.8,25.9c0.5-0.3,0.3-0.5,0.3-0.6c0-0.2-0.8-1-0.8-1c0.7,0.4,1.6,1.2,1.7,1.9
						c-2.4,0.2-2.6,1-3.2,1.8c0.4-0.5,0.6-2.1,0.6-2.1c0,0.2,0.1,0.5,0.1,0.7c0,0,0,0,0.1,0C27.9,26.6,28.4,26.2,28.8,25.9
						 M16.8,31.9c-0.2-1.4-0.3-2.8-0.3-4.3c0-0.8,0.3-1.6,2.4-3.8c0,0-0.8,1.6-0.7,2s0.7,0.8,0.7,0.8s-1.1-0.3-1.5,0.1
						c-0.3,0.4-0.4,1.6-0.3,3.2c0.1,0.6,0.4,0.8,1.3,1.2c0.5,0.2,1.1,0.4,1.6,0.6c0,0-1.9,0-2.4-0.4c-0.2,0.2-0.2,1.3,1.1,2.3
						C18.3,33.6,16.9,32.8,16.8,31.9 M31.1,25.9c0.1-0.5-0.7-2-0.7-2c2.1,2.1,2.4,3,2.4,3.8c0,1.4-0.1,2.9-0.3,4.3
						c-0.1,0.9-1.5,1.6-2,1.8c1.3-1,1.3-2.1,1.1-2.3c-0.5,0.3-2.4,0.4-2.4,0.4c0.6-0.1,1.1-0.3,1.6-0.6c0.9-0.4,1.2-0.6,1.3-1.2
						c0.1-1.6,0-2.7-0.3-3.2c-0.3-0.5-1.5-0.1-1.5-0.1S31,26.4,31.1,25.9 M16.1,34.4C16,34.3,16,34.1,16,33.7c0-0.4-0.4-1-0.6-1.3
						c-0.3-0.3-0.4-0.7-0.3-1c0.1-0.6-0.1-2.5-0.3-3.5c-0.2-1,0.7-2.6,1-3.3s2.7-2,2.7-2S17.9,23,16.4,25c-1.8,2.7-0.3,7.7,0.4,8.9
						c0.7,1.3,1.5,1,1.5,1L19,36c-0.8-0.7-1.4-0.7-1.8-0.1C17.1,35.3,16.7,34.7,16.1,34.4 M32.4,33.9c0.7-1.3,2.1-6.2,0.4-8.9
						c-1.6-1.9-2.1-2.4-2.1-2.4s2.4,1.4,2.7,2c0.3,0.7,1.2,2.3,1,3.3c-0.2,1-0.5,3-0.3,3.5c0.1,0.4,0,0.8-0.3,1
						c-0.2,0.2-0.7,0.9-0.6,1.3s0,0.5-0.1,0.6c-0.6,0.3-1,0.9-1,1.6c-0.4-0.6-1-0.6-1.8,0.1l0.7-1.1c0.1,0,0.1,0,0.2,0
						C31.4,34.9,31.9,34.8,32.4,33.9 M28.9,21.3c-1.2-0.3-2.4-0.6-3.6-0.6l0,0.8c0,0,2.7,0,4.6,1.3c-3.3-0.7-4.7-0.7-4.7-0.7v0.8
						c0.8,0.1,1.6,0.3,2.4,0.7c-2-0.3-4-0.3-6,0c0.8-0.4,1.6-0.7,2.5-0.7l0-0.8c0,0-3.3,0.1-4.7,0.8c0.7-0.7,2.4-1.2,4.7-1.5
						L24,20.5c-1.3,0-2.6,0.2-3.8,0.7C20.2,21.2,24.3,18.4,28.9,21.3 M32.2,20.3c-0.7,0.3-1.3,0.4-1.6,0.3c-1.1-0.5-2.3-0.9-3.5-1.1
						c-0.8-0.1-1.6-0.1-2.4,0.1c-0.8-0.2-1.7-0.2-2.5-0.1c-1.2,0.3-2.4,0.7-3.6,1.2c-0.3,0.1-0.9,0-1.6-0.3c-0.8-0.3-1.4-0.8-2-1.4
						c-0.8,1.6-0.8,3-0.6,3.9c0.1,0.5,0.4,1,0.7,1.4c0,0-2.1,2.2-1.1,7.8l0.9-1.7c0,0-1.2,3,1.4,6.1l-0.2-1.9c0,0,0.4,2,3,4.2
						c0-0.5,0-1.1-0.1-1.6c0,0,1.4,1.2,1.6,2.9c0.4-0.5,0.1-0.8,0.1-0.8c0.4,0.3,0.6,0.8,0.5,1.4c0.3-0.2,0.5-0.5,0.5-0.8
						c0.3,0.5,0.7,1,1.2,1.3c0-0.3-0.1-0.5-0.2-0.8c0.2,0.3,0.6,0.5,0.9,0.7l0.4-0.6l0.7,1l0.6-1c0.1,0.2,0.3,0.4,0.5,0.6l0.5-0.7
						c0,0,0.1,0.1-0.1,0.8c0.5-0.3,0.8-0.8,1.1-1.3c0,0.3,0.2,0.7,0.5,0.8c-0.1-0.5,0-1,0.5-1.4c0,0-0.2,0.3,0.1,0.8
						c0.2-1.6,1.6-2.9,1.6-2.9c-0.1,0.5-0.1,1.1-0.1,1.6c2.6-2.2,3-4.2,3-4.2l-0.2,1.9c2.6-3.1,1.4-6.1,1.4-6.1l0.9,1.7
						c1-5.7-1.1-7.9-1.1-7.9c0.3-0.4,0.6-0.9,0.7-1.4c0.2-0.9,0.3-2.2-0.6-3.9C33.6,19.6,32.9,20,32.2,20.3"/>
				</defs>
				<clipPath id="SVGID_32_">
					<use xlink:href="#SVGID_31_"  style="overflow:visible;"/>
				</clipPath>
				<g class="st22">
					
						<linearGradient id="SVGID_33_" gradientUnits="userSpaceOnUse" x1="-516.6364" y1="483.9805" x2="-516.4974" y2="483.9805" gradientTransform="matrix(157.47 0 0 -157.47 81368.3438 76242.3594)">
						<stop  offset="0" style="stop-color:#9A6940"/>
						<stop  offset="1" style="stop-color:#E2B885"/>
					</linearGradient>
					<rect x="13" y="18.4" class="st23" width="23.1" height="23"/>
				</g>
			</g>
		</g>
	</g>
</g>
</svg>
